<svg xmlns="http://www.w3.org/2000/svg" width="655" height="285" viewBox="0 0 655 285">
<g>
<path d="M 509.79 238.87 C499.12,237.40 490.02,230.83 485.29,221.16 C482.91,216.32 482.51,214.26 482.51,206.98 C482.50,199.37 482.85,197.76 485.78,191.79 C491.01,181.17 500.42,175.02 512.65,174.22 C521.39,173.65 528.37,175.22 534.58,179.15 C538.70,181.77 539.11,182.32 537.83,183.59 C536.56,184.87 535.59,184.64 530.03,181.78 C524.34,178.85 522.82,178.51 515.59,178.55 C508.86,178.60 506.64,179.05 502.36,181.26 C491.88,186.68 486.36,196.77 487.23,208.88 C487.81,216.97 490.33,222.21 496.32,227.73 C505.66,236.33 521.71,237.46 532.30,230.25 C535.77,227.88 536.23,227.80 537.69,229.26 C539.16,230.73 538.88,231.12 534.41,233.95 C527.03,238.64 519.32,240.17 509.79,238.87 ZM 369.00 206.50 L 369.00 174.00 L 390.57 174.00 L 412.14 174.00 L 411.82 176.25 C411.50,178.48 411.36,178.50 392.25,178.77 L 373.00 179.04 L 373.00 192.52 L 373.00 206.00 L 390.50 206.00 C407.26,206.00 408.00,206.08 408.00,207.98 C408.00,209.86 407.17,209.97 390.75,210.23 L 373.50 210.50 L 373.22 224.75 C372.96,238.17 372.83,239.00 370.97,239.00 C369.05,239.00 369.00,238.18 369.00,206.50 ZM 422.70 218.25 C427.94,206.84 434.61,192.32 437.51,186.00 C441.96,176.31 443.18,174.45 445.24,174.20 C447.37,173.94 448.04,174.71 450.50,180.20 C452.05,183.66 454.87,189.88 456.77,194.00 C472.11,227.27 477.00,238.03 477.00,238.48 C477.00,238.76 475.96,239.00 474.69,239.00 C472.75,239.00 471.72,237.55 468.27,230.00 L 464.16 221.00 L 445.27 221.00 L 426.38 221.00 L 422.27 230.00 C418.69,237.84 417.84,239.00 415.66,239.00 C413.21,239.00 413.38,238.51 422.70,218.25 ZM 462.00 216.60 C462.00,215.39 445.98,181.49 445.30,181.27 C444.57,181.02 429.98,212.09 429.18,215.60 C428.91,216.76 431.72,217.00 445.43,217.00 C454.54,217.00 462.00,216.82 462.00,216.60 ZM 555.00 206.50 C555.00,174.67 555.04,174.00 557.00,174.00 C558.96,174.00 559.00,174.67 559.00,206.50 C559.00,238.33 558.96,239.00 557.00,239.00 C555.04,239.00 555.00,238.33 555.00,206.50 ZM 575.60 238.16 C575.32,237.70 575.18,223.19 575.29,205.91 L 575.50 174.50 L 577.74 174.18 L 579.97 173.86 L 580.24 204.18 L 580.50 234.50 L 599.25 234.77 C617.17,235.03 618.00,235.13 618.00,237.02 C618.00,238.93 617.26,239.00 597.06,239.00 C585.54,239.00 575.89,238.62 575.60,238.16 ZM 446.44 163.44 C451.77,158.91 453.57,157.93 456.05,158.19 C459.06,158.50 458.99,158.58 452.07,163.75 C447.85,166.90 444.01,169.00 442.46,169.00 C440.17,169.00 440.61,168.38 446.44,163.44 ZM 47.36 154.86 C42.44,152.41 42.49,150.37 48.17,125.58 C52.36,107.28 53.93,102.02 55.75,100.19 C57.01,98.91 57.78,97.45 57.46,96.94 C57.14,96.42 53.87,95.99 50.19,95.98 C46.51,95.98 42.96,95.63 42.30,95.20 C41.64,94.78 40.79,92.52 40.41,90.18 L 39.73 85.92 L 49.03 86.21 L 58.32 86.50 L 59.47 90.50 C60.35,93.59 61.06,94.44 62.56,94.22 C63.63,94.06 83.96,93.98 107.75,94.03 C133.03,94.08 151.00,93.74 151.00,93.21 C151.00,92.71 149.73,89.20 148.17,85.40 L 145.34 78.50 L 121.92 78.26 L 98.50 78.02 L 95.56 82.01 L 92.62 86.00 L 84.75 86.00 C79.23,86.00 77.09,85.67 77.57,84.89 C79.65,81.52 90.51,69.32 92.35,68.29 C93.89,67.42 102.45,67.06 122.53,67.04 C154.26,67.00 153.53,66.83 156.50,74.70 C157.49,77.34 159.52,82.20 161.01,85.50 C162.49,88.80 163.92,92.16 164.17,92.96 C164.47,93.88 165.35,92.96 166.57,90.46 L 168.50 86.50 L 177.25 86.21 C186.79,85.90 187.06,86.08 184.94,91.66 C183.50,95.45 182.41,95.97 175.90,95.98 C169.52,96.00 164.00,97.61 164.00,99.44 C164.00,100.13 163.17,101.44 162.16,102.35 C160.51,103.85 155.54,104.04 113.21,104.26 C79.08,104.43 65.78,104.82 64.94,105.66 C63.76,106.84 58.51,128.68 57.41,137.00 C56.93,140.57 57.16,141.89 58.45,142.95 C60.73,144.85 72.29,145.58 131.00,147.49 C158.77,148.40 183.07,149.47 185.00,149.88 C187.25,150.36 181.54,150.86 169.00,151.29 C140.25,152.28 73.17,154.83 60.50,155.42 C53.68,155.73 48.69,155.52 47.36,154.86 ZM 295.29 150.99 C283.53,149.27 273.63,143.68 268.09,135.63 C262.54,127.56 262.00,123.20 262.00,86.29 L 262.00 53.00 L 275.50 53.00 L 289.00 53.00 L 289.00 85.27 C289.00,114.83 289.16,117.82 290.86,121.02 C293.46,125.87 298.23,128.43 304.68,128.43 C310.37,128.43 313.66,126.67 317.44,121.62 C319.41,118.98 319.51,117.39 319.79,85.93 L 320.08 53.00 L 333.61 53.00 L 347.14 53.00 L 346.77 88.25 C346.34,128.97 346.27,129.36 337.41,138.92 C327.78,149.32 312.96,153.57 295.29,150.99 ZM 387.51 150.82 C374.33,148.31 361.82,138.76 356.26,126.97 C352.35,118.68 351.00,112.05 351.00,101.16 C351.00,86.48 355.14,75.04 363.80,65.78 C387.06,40.92 433.93,50.05 440.84,80.79 L 441.79 85.00 L 428.49 85.00 L 415.20 85.00 L 413.17 81.56 C410.42,76.91 406.16,74.90 398.92,74.87 C390.52,74.83 385.07,78.11 381.53,85.35 C374.72,99.27 378.76,121.05 389.19,126.67 C393.64,129.07 405.21,129.05 409.79,126.64 C413.25,124.82 416.99,119.70 417.00,116.79 C417.00,115.33 415.73,115.04 408.25,114.79 L 399.50 114.50 L 399.21 105.25 L 398.92 96.00 L 420.96 96.00 L 443.00 96.00 L 443.00 104.86 C443.00,121.30 439.78,130.84 431.35,139.39 C421.22,149.66 404.41,154.05 387.51,150.82 ZM 196.75 150.27 L 193.00 149.88 L 193.00 101.44 L 193.00 53.00 L 206.50 53.00 L 220.00 53.00 L 220.00 91.00 L 220.00 129.00 L 239.50 129.00 L 259.00 129.00 L 259.00 140.00 L 259.00 151.00 L 229.75 150.83 C213.66,150.74 198.81,150.49 196.75,150.27 ZM 441.55 150.09 C441.28,149.65 448.29,127.63 457.12,101.15 L 473.17 53.00 L 491.35 53.00 L 509.53 53.00 L 525.68 101.56 C537.64,137.51 541.49,150.26 540.52,150.63 C539.80,150.91 533.43,150.99 526.36,150.82 L 513.50 150.50 L 510.50 141.25 L 507.50 132.01 L 491.32 132.00 L 475.14 132.00 L 472.29 141.25 L 469.44 150.50 L 455.74 150.69 C448.21,150.79 441.82,150.52 441.55,150.09 ZM 500.99 111.25 C500.98,110.84 498.96,103.79 496.49,95.59 C494.02,87.38 492.00,80.43 492.00,80.14 C492.00,79.84 491.60,80.03 491.12,80.55 C490.64,81.07 488.33,88.03 485.99,96.00 C483.65,103.97 481.55,110.84 481.31,111.25 C481.07,111.66 485.41,112.00 490.94,112.00 C496.47,112.00 500.99,111.66 500.99,111.25 ZM 74.08 132.74 C71.30,131.31 69.19,126.21 69.08,120.65 L 69.00 116.79 L 77.25 117.51 C81.79,117.90 85.84,118.43 86.26,118.68 C87.64,119.50 90.82,126.51 91.53,130.30 L 92.22 134.00 L 84.36 133.99 C80.04,133.98 75.41,133.41 74.08,132.74 ZM 97.00 133.02 C97.00,132.48 97.72,130.23 98.61,128.02 L 100.22 124.00 L 116.51 124.00 L 132.80 124.00 L 133.90 127.15 C136.39,134.28 137.13,134.00 116.00,134.00 C104.26,134.00 97.00,133.63 97.00,133.02 ZM 140.76 133.42 C139.41,132.07 143.51,122.63 146.65,119.86 C148.79,117.98 163.43,116.27 164.37,117.79 C165.56,119.72 162.19,129.44 159.53,131.73 C157.27,133.67 155.76,134.00 149.11,134.00 C144.83,134.00 141.07,133.74 140.76,133.42 Z" fill="rgba(0,0,0,1)"/>
</g>
</svg>